<svg width="390" height="254" viewBox="0 0 390 254" fill="none" xmlns="http://www.w3.org/2000/svg">
<path d="M3 2L387.294 250.116" stroke="#90D2F7" stroke-opacity="0.79" stroke-width="4" stroke-linecap="round"/>
<path d="M3 162L141.824 250.836" stroke="#90D2F7" stroke-opacity="0.79" stroke-width="4" stroke-linecap="round"/>
<path d="M3 82L263.299 250.691" stroke="#90D2F7" stroke-opacity="0.79" stroke-width="4" stroke-linecap="round"/>
<path d="M3 242L18.7635 251" stroke="#90D2F7" stroke-opacity="0.79" stroke-width="4" stroke-linecap="round"/>
<path d="M3 42L324.824 250.618" stroke="#90D2F7" stroke-opacity="0.79" stroke-width="4" stroke-linecap="round"/>
<path d="M3 202L81.8747 250.908" stroke="#90D2F7" stroke-opacity="0.79" stroke-width="4" stroke-linecap="round"/>
<path d="M3 122L201.774 250.764" stroke="#90D2F7" stroke-opacity="0.79" stroke-width="4" stroke-linecap="round"/>
<path d="M3 22L354.799 250.582" stroke="#90D2F7" stroke-opacity="0.79" stroke-width="4" stroke-linecap="round"/>
<path d="M3 182L110.274 250.873" stroke="#90D2F7" stroke-opacity="0.79" stroke-width="4" stroke-linecap="round"/>
<path d="M3 102L233.324 250.727" stroke="#90D2F7" stroke-opacity="0.79" stroke-width="4" stroke-linecap="round"/>
<path d="M3 62L294.849 250.654" stroke="#90D2F7" stroke-opacity="0.79" stroke-width="4" stroke-linecap="round"/>
<path d="M3 222L50.3242 250.945" stroke="#90D2F7" stroke-opacity="0.79" stroke-width="4" stroke-linecap="round"/>
<path d="M3 142L171.799 250.8" stroke="#90D2F7" stroke-opacity="0.79" stroke-width="4" stroke-linecap="round"/>
<path d="M3 12L370.574 250.563" stroke="#90D2F7" stroke-opacity="0.79" stroke-width="4" stroke-linecap="round"/>
<path d="M3 172L125.956 251" stroke="#90D2F7" stroke-opacity="0.79" stroke-width="4" stroke-linecap="round"/>
<path d="M3 92L249.099 250.708" stroke="#90D2F7" stroke-opacity="0.79" stroke-width="4" stroke-linecap="round"/>
<path d="M3 251L4.57753 251.998" stroke="#90D2F7" stroke-opacity="0.79" stroke-width="4" stroke-linecap="round"/>
<path d="M3 52L309.049 250.636" stroke="#90D2F7" stroke-opacity="0.79" stroke-width="4" stroke-linecap="round"/>
<path d="M3 212L66.0995 250.927" stroke="#90D2F7" stroke-opacity="0.79" stroke-width="4" stroke-linecap="round"/>
<path d="M3 132L187.574 250.782" stroke="#90D2F7" stroke-opacity="0.79" stroke-width="4" stroke-linecap="round"/>
<path d="M3 32L340.599 250.599" stroke="#90D2F7" stroke-opacity="0.79" stroke-width="4" stroke-linecap="round"/>
<path d="M3 192L96.0742 250.891" stroke="#90D2F7" stroke-opacity="0.79" stroke-width="4" stroke-linecap="round"/>
<path d="M3 112L217.549 250.746" stroke="#90D2F7" stroke-opacity="0.79" stroke-width="4" stroke-linecap="round"/>
<path d="M3 72L279.074 250.672" stroke="#90D2F7" stroke-opacity="0.79" stroke-width="4" stroke-linecap="round"/>
<path d="M3 232L34.5489 250.964" stroke="#90D2F7" stroke-opacity="0.79" stroke-width="4" stroke-linecap="round"/>
<path d="M3 152L156.024 250.819" stroke="#90D2F7" stroke-opacity="0.79" stroke-width="4" stroke-linecap="round"/>
</svg>
